<svg width="237" height="76" viewBox="0 0 237 76" fill="none" xmlns="http://www.w3.org/2000/svg">
<path d="M19.0789 19.6H24.1349C24.3695 19.6 24.5722 19.6853 24.7429 19.856C24.9135 20.0267 24.9989 20.2293 24.9989 20.464V41.136C24.9989 41.3707 24.9135 41.5733 24.7429 41.744C24.5722 41.9147 24.3695 42 24.1349 42H18.3429C18.1082 42 17.9055 41.9147 17.7349 41.744C17.5642 41.5733 17.4789 41.3707 17.4789 41.136V32.368L15.3669 35.824C15.0255 36.3573 14.6309 36.624 14.1829 36.624H11.9429C11.4949 36.624 11.1002 36.3573 10.7589 35.824L8.64688 32.368V41.136C8.64688 41.3707 8.56154 41.5733 8.39088 41.744C8.22021 41.9147 8.01754 42 7.78288 42H1.99088C1.75621 42 1.55354 41.9147 1.38288 41.744C1.21221 41.5733 1.12688 41.3707 1.12688 41.136V20.464C1.12688 20.2293 1.21221 20.0267 1.38288 19.856C1.55354 19.6853 1.75621 19.6 1.99088 19.6H7.04688C7.64421 19.6 8.10288 19.888 8.42288 20.464L13.0629 28.144L17.7029 20.464C18.0229 19.888 18.4815 19.6 19.0789 19.6ZM43.4161 19.6H50.3601C51.1281 19.6 51.6081 19.952 51.8001 20.656L58.9361 41.072C58.9575 41.136 58.9681 41.2427 58.9681 41.392C58.9681 41.52 58.8935 41.6587 58.7441 41.808C58.6161 41.936 58.4561 42 58.2641 42H52.3441C51.7041 42 51.2881 41.7333 51.0961 41.2L50.3281 39.088H43.4481L42.6801 41.2C42.4881 41.7333 42.0721 42 41.4321 42H35.5121C35.3201 42 35.1495 41.936 35.0001 41.808C34.8721 41.6587 34.8081 41.52 34.8081 41.392C34.8081 41.2427 34.8188 41.136 34.8401 41.072L41.9761 20.656C42.1681 19.952 42.6481 19.6 43.4161 19.6ZM45.0801 32.848H48.6961L46.8721 26.896L45.0801 32.848ZM68.2391 42.32C68.0045 42.32 67.7911 42.2347 67.5991 42.064C67.4285 41.8933 67.3431 41.6907 67.3431 41.456V36.752C67.3431 36.5173 67.4285 36.3147 67.5991 36.144C67.7698 35.9733 67.9725 35.888 68.2071 35.888C69.7858 35.888 70.5751 35.0667 70.5751 33.424V20.464C70.5751 20.2293 70.6605 20.0267 70.8311 19.856C71.0018 19.6853 71.2045 19.6 71.4391 19.6H89.6151C89.8498 19.6 90.0525 19.6853 90.2231 19.856C90.3938 20.0267 90.4791 20.2293 90.4791 20.464V41.136C90.4791 41.3707 90.3938 41.5733 90.2231 41.744C90.0525 41.9147 89.8498 42 89.6151 42H83.3431C83.1085 42 82.9058 41.9147 82.7351 41.744C82.5645 41.5733 82.4791 41.3707 82.4791 41.136V26.64H78.5751V33.328C78.5751 36.3147 77.6471 38.5653 75.7911 40.08C73.9351 41.5733 71.4178 42.32 68.2391 42.32ZM104.789 33.648C102.485 32.176 101.333 30.16 101.333 27.6C101.333 25.0187 102.197 23.0453 103.925 21.68C105.653 20.2933 108.053 19.6 111.125 19.6H120.597C120.832 19.6 121.034 19.6853 121.205 19.856C121.376 20.0267 121.461 20.2293 121.461 20.464V41.136C121.461 41.3707 121.376 41.5733 121.205 41.744C121.034 41.9147 120.832 42 120.597 42H114.325C114.09 42 113.888 41.9147 113.717 41.744C113.546 41.5733 113.461 41.3707 113.461 41.136V35.024H112.149L109.397 41.136C109.141 41.712 108.682 42 108.021 42H101.461C101.269 42 101.098 41.936 100.949 41.808C100.821 41.6587 100.757 41.5093 100.757 41.36C100.757 41.2107 100.789 41.072 100.853 40.944L104.789 33.648ZM113.461 28.944V25.552H111.125C110.634 25.552 110.261 25.7333 110.005 26.096C109.77 26.4373 109.653 26.8427 109.653 27.312C109.653 27.7813 109.781 28.176 110.037 28.496C110.293 28.7947 110.656 28.944 111.125 28.944H113.461ZM156.8 42H150.272C150.037 42 149.835 41.9147 149.664 41.744C149.493 41.5733 149.408 41.3707 149.408 41.136V20.464C149.408 20.2293 149.493 20.0267 149.664 19.856C149.835 19.6853 150.037 19.6 150.272 19.6H156.8C157.035 19.6 157.237 19.6853 157.408 19.856C157.579 20.0267 157.664 20.2293 157.664 20.464V41.136C157.664 41.3707 157.579 41.5733 157.408 41.744C157.237 41.9147 157.035 42 156.8 42ZM196.931 27.6C197.166 27.3227 197.283 26.992 197.283 26.608C197.283 26.224 197.166 25.8827 196.931 25.584C196.718 25.264 196.398 25.104 195.971 25.104H193.283V28.016H195.971C196.398 28.016 196.718 27.8773 196.931 27.6ZM193.283 33.36V36.496H196.259C196.75 36.496 197.112 36.336 197.347 36.016C197.603 35.6747 197.731 35.3013 197.731 34.896V34.864C197.731 34.4587 197.592 34.1067 197.315 33.808C197.059 33.5093 196.707 33.36 196.259 33.36H193.283ZM197.091 42H186.147C185.912 42 185.71 41.9147 185.539 41.744C185.368 41.5733 185.283 41.3707 185.283 41.136V20.464C185.283 20.2293 185.368 20.0267 185.539 19.856C185.71 19.6853 185.912 19.6 186.147 19.6H196.771C199.8 19.6 202.03 20.1547 203.459 21.264C204.91 22.352 205.635 24.0053 205.635 26.224V26.32C205.635 27.2373 205.368 28.0587 204.835 28.784C204.302 29.488 203.715 30 203.075 30.32C203.928 30.6613 204.643 31.2693 205.219 32.144C205.816 32.9973 206.115 33.936 206.115 34.96C206.115 39.6533 203.107 42 197.091 42ZM217.585 19.6H223.377C223.611 19.6 223.814 19.6853 223.985 19.856C224.155 20.0267 224.241 20.2293 224.241 20.464V29.2L229.649 20.336C229.926 19.8453 230.363 19.6 230.961 19.6H236.017C236.251 19.6 236.454 19.6853 236.625 19.856C236.795 20.0267 236.881 20.2293 236.881 20.464V41.136C236.881 41.3707 236.795 41.5733 236.625 41.744C236.454 41.9147 236.251 42 236.017 42H230.225C229.99 42 229.787 41.9147 229.617 41.744C229.446 41.5733 229.361 41.3707 229.361 41.136V33.104L223.953 41.264C223.633 41.7547 223.195 42 222.641 42H217.585C217.35 42 217.147 41.9147 216.977 41.744C216.806 41.5733 216.721 41.3707 216.721 41.136V20.464C216.721 20.2293 216.806 20.0267 216.977 19.856C217.147 19.6853 217.35 19.6 217.585 19.6Z" fill="#1CABE2"/>
<path d="M3.79004 64.3848C4.77441 64.3848 5.53776 64.722 6.08008 65.3965C6.62695 66.0664 6.90039 67.0166 6.90039 68.2471C6.90039 69.4775 6.62467 70.4346 6.07324 71.1182C5.52637 71.7972 4.7653 72.1367 3.79004 72.1367C3.30241 72.1367 2.85579 72.0479 2.4502 71.8701C2.04915 71.6878 1.71191 71.4098 1.43848 71.0361H1.35645L1.11719 72H0.303711V61.3633H1.43848V63.9473C1.43848 64.526 1.42025 65.0456 1.38379 65.5059H1.43848C1.96712 64.7585 2.75098 64.3848 3.79004 64.3848ZM3.62598 65.335C2.85124 65.335 2.29297 65.5583 1.95117 66.0049C1.60938 66.4469 1.43848 67.1943 1.43848 68.2471C1.43848 69.2998 1.61393 70.054 1.96484 70.5098C2.31576 70.9609 2.87858 71.1865 3.65332 71.1865C4.35059 71.1865 4.87012 70.9336 5.21191 70.4277C5.55371 69.9173 5.72461 69.1859 5.72461 68.2334C5.72461 67.2581 5.55371 66.5312 5.21191 66.0527C4.87012 65.5742 4.34147 65.335 3.62598 65.335ZM7.9502 64.5078H9.16699L10.8076 68.7803C11.1676 69.7555 11.391 70.4596 11.4775 70.8926H11.5322C11.5915 70.6602 11.7145 70.2637 11.9014 69.7031C12.0928 69.138 12.7126 67.4062 13.7607 64.5078H14.9775L11.7578 73.0391C11.4388 73.8822 11.0651 74.4792 10.6367 74.8301C10.2129 75.1855 9.69108 75.3633 9.07129 75.3633C8.72493 75.3633 8.38314 75.3245 8.0459 75.2471V74.3379C8.29655 74.3926 8.57682 74.4199 8.88672 74.4199C9.66602 74.4199 10.222 73.9824 10.5547 73.1074L10.9717 72.041L7.9502 64.5078ZM28.0488 62.0059V68.4727C28.0488 69.612 27.7048 70.5075 27.0166 71.1592C26.3285 71.8109 25.3828 72.1367 24.1797 72.1367C22.9766 72.1367 22.0446 71.8086 21.3838 71.1523C20.7275 70.4961 20.3994 69.5938 20.3994 68.4453V62.0059H21.5615V68.5273C21.5615 69.3613 21.7894 70.0016 22.2451 70.4482C22.7008 70.8949 23.3708 71.1182 24.2549 71.1182C25.098 71.1182 25.7474 70.8949 26.2031 70.4482C26.6589 69.9971 26.8867 69.3522 26.8867 68.5137V62.0059H28.0488ZM38.7578 72H37.4316L31.9697 63.6123H31.915C31.988 64.5967 32.0244 65.499 32.0244 66.3193V72H30.9512V62.0059H32.2637L37.7119 70.3594H37.7666C37.7575 70.2363 37.737 69.8421 37.7051 69.1768C37.6732 68.5068 37.6618 68.0283 37.6709 67.7412V62.0059H38.7578V72ZM41.7559 72V62.0059H42.918V72H41.7559ZM50.1953 62.9014C49.097 62.9014 48.2288 63.2682 47.5908 64.002C46.9574 64.7311 46.6406 65.7314 46.6406 67.0029C46.6406 68.3109 46.946 69.3226 47.5566 70.0381C48.1719 70.749 49.0469 71.1045 50.1816 71.1045C50.8789 71.1045 51.6742 70.9792 52.5674 70.7285V71.7471C51.8747 72.0068 51.0202 72.1367 50.0039 72.1367C48.5319 72.1367 47.3949 71.6901 46.5928 70.7969C45.7952 69.9036 45.3965 68.6344 45.3965 66.9893C45.3965 65.9593 45.5879 65.057 45.9707 64.2822C46.3581 63.5075 46.9141 62.9105 47.6387 62.4912C48.3678 62.0719 49.2246 61.8623 50.209 61.8623C51.2572 61.8623 52.1732 62.0537 52.957 62.4365L52.4648 63.4346C51.7083 63.0791 50.9518 62.9014 50.1953 62.9014ZM60.5693 72H54.998V62.0059H60.5693V63.0381H56.1602V66.2578H60.3027V67.2832H56.1602V70.9609H60.5693V72ZM64.2031 72H63.041V62.0059H68.6123V63.0381H64.2031V66.6953H68.3457V67.7275H64.2031V72Z" fill="#1CABE2"/>
<path d="M154 12.2188L153.031 11.3438C151.594 10.0521 150.594 9.11458 150.031 8.53125C149.135 7.61458 148.479 6.80208 148.062 6.09375C147.583 5.28125 147.344 4.46875 147.344 3.65625C147.344 2.98958 147.5 2.375 147.812 1.8125C148.146 1.25 148.594 0.8125 149.156 0.5C149.719 0.166667 150.333 0 151 0C151.583 0 152.135 0.125 152.656 0.375C153.177 0.625 153.625 0.958333 154 1.375C154.375 0.958333 154.823 0.625 155.344 0.375C155.865 0.125 156.417 0 157 0C157.667 0 158.281 0.166667 158.844 0.5C159.406 0.8125 159.844 1.25 160.156 1.8125C160.49 2.375 160.656 2.98958 160.656 3.65625C160.656 4.46875 160.417 5.28125 159.938 6.09375C159.521 6.80208 158.865 7.61458 157.969 8.53125C157.406 9.11458 156.406 10.0521 154.969 11.3438L154 12.2188Z" fill="#E2231A"/>
</svg>
